<?xml version="1.0" encoding="UTF-8" standalone="no"?>
<!DOCTYPE svg PUBLIC "-//W3C//DTD SVG 1.1//EN" "http://www.w3.org/Graphics/SVG/1.1/DTD/svg11.dtd">
<svg width="100%" height="100%" viewBox="0 0 196 301" version="1.1" xmlns="http://www.w3.org/2000/svg" xmlns:xlink="http://www.w3.org/1999/xlink" xml:space="preserve" xmlns:serif="http://www.serif.com/" style="fill-rule:evenodd;clip-rule:evenodd;stroke-linejoin:round;stroke-miterlimit:2;">
    <g transform="matrix(1,0,0,1,-544,-392.994064)">
        <path id="_0" serif:id="0" d="M641,393C681.713,393.118 691.371,395.597 715,419C723.727,427.643 738.515,455.794 739.534,480L739.534,618C738.513,643.068 726.071,657.84 715,668C697.681,683.894 678.812,693.104 644,693C612.207,692.905 594.362,684.126 576,673C562.719,664.952 547.062,645.512 544,614.611L544,479C544.681,456.292 551.563,426.261 570,413C597.593,393.153 616.898,392.93 641,393ZM643,417C625.705,416.535 606.993,416.698 587,433C575.242,442.587 569.02,461.5 568,488C567.134,510.504 566.576,573.004 568,593C568.929,606.047 567.012,620.218 577,636C588.053,653.465 597.917,656.194 611,663C622.932,669.207 659.751,674.081 686,660C686.817,659.562 706.84,643.856 712,627C717.525,608.953 715.687,599.873 715,571C714.471,548.763 716.334,510.362 715,487C713.8,465.98 706.32,445.392 694,433C679.967,418.885 653.302,417.277 643,417Z" style="fill:rgb(79,63,103);"/>
    </g>
</svg>
