<?xml version="1.0" encoding="UTF-8" standalone="no"?><!DOCTYPE svg PUBLIC "-//W3C//DTD SVG 1.1//EN" "http://www.w3.org/Graphics/SVG/1.1/DTD/svg11.dtd"><svg width="100%" height="100%" viewBox="0 0 196 301" version="1.1" xmlns="http://www.w3.org/2000/svg" xmlns:xlink="http://www.w3.org/1999/xlink" xml:space="preserve" xmlns:serif="http://www.serif.com/" style="fill-rule:evenodd;clip-rule:evenodd;stroke-linejoin:round;stroke-miterlimit:2;"><g><path id="_0" serif:id="0" d="M97,0.006c40.713,0.118 50.371,2.597 74,26c8.727,8.643 23.515,36.794 24.534,61l0,138c-1.021,25.068 -13.463,39.84 -24.534,50c-17.319,15.894 -36.188,25.104 -71,25c-31.793,-0.095 -49.638,-8.874 -68,-20c-13.281,-8.048 -28.938,-27.488 -32,-58.389l0,-135.611c0.681,-22.708 7.563,-52.739 26,-66c27.593,-19.847 46.898,-20.07 71,-20Zm2,24c-17.295,-0.465 -36.007,-0.302 -56,16c-11.758,9.587 -17.98,28.5 -19,55c-0.866,22.504 -1.424,85.004 0,105c0.929,13.047 -0.988,27.218 9,43c11.053,17.465 20.917,20.194 34,27c11.932,6.207 48.751,11.081 75,-3c0.817,-0.438 20.84,-16.144 26,-33c5.525,-18.047 3.687,-27.127 3,-56c-0.529,-22.237 1.334,-60.638 0,-84c-1.2,-21.02 -8.68,-41.608 -21,-54c-14.033,-14.115 -40.698,-15.723 -51,-16Z"/></g></svg>