<?xml version="1.0" encoding="UTF-8" standalone="no"?>
<!DOCTYPE svg PUBLIC "-//W3C//DTD SVG 1.1//EN" "http://www.w3.org/Graphics/SVG/1.1/DTD/svg11.dtd">
<svg width="100%" height="100%" viewBox="0 0 196 301" version="1.1" xmlns="http://www.w3.org/2000/svg" xmlns:xlink="http://www.w3.org/1999/xlink" xml:space="preserve" xmlns:serif="http://www.serif.com/" style="fill-rule:evenodd;clip-rule:evenodd;stroke-linejoin:round;stroke-miterlimit:2;">
    <g transform="matrix(1,0,0,1,-1124,-392.863212)">
        <g id="_2" serif:id="2" transform="matrix(1,0,0,1,-3,-6)">
            <path d="M1151,472L1127,472C1127,472 1128.912,429.654 1161,412C1186.983,397.704 1198.268,398.7 1230,399C1268.195,399.361 1298.15,417.284 1313,444C1325.944,467.286 1325.702,484.83 1309,512C1289.273,544.091 1183,675 1183,675L1322,675L1322,699L1127,699.065C1127,699.065 1256.95,540.65 1269,523C1284.495,500.304 1301.378,489.889 1290,458C1284.292,442.002 1261.021,427.777 1245,425C1220.228,420.707 1193.813,421.354 1176,431C1151.705,444.155 1151,472 1151,472Z" style="fill:rgb(79,63,103);"/>
        </g>
    </g>
</svg>
