<?xml version="1.0" encoding="UTF-8" standalone="no"?>
<!DOCTYPE svg PUBLIC "-//W3C//DTD SVG 1.1//EN" "http://www.w3.org/Graphics/SVG/1.1/DTD/svg11.dtd">
<svg width="100%" height="100%" viewBox="0 0 197 301" version="1.1" xmlns="http://www.w3.org/2000/svg" xmlns:xlink="http://www.w3.org/1999/xlink" xml:space="preserve" xmlns:serif="http://www.serif.com/" style="fill-rule:evenodd;clip-rule:evenodd;stroke-linejoin:round;stroke-miterlimit:2;">
    <g transform="matrix(1,0,0,1,-1420.99781,-392.844244)">
        <g id="_3" serif:id="3" transform="matrix(1,0,0,1,1,-7)">
            <path d="M1434,435C1425.308,445.462 1420,473 1420,473L1444,473.273C1444,473.273 1453.733,444.656 1465,436C1479.594,424.788 1501.272,424.453 1513.565,424C1536.358,423.16 1570.604,427.194 1582,444C1587.313,451.835 1593.09,460.177 1592,473.411C1590.536,491.183 1580.754,505.404 1575.856,511.574C1568.032,521.428 1553.987,528.511 1540,533C1519.345,539.63 1502,538 1502,538L1502,563C1502,563 1533.541,564.117 1556,572C1570.052,576.932 1586.571,587.108 1591,614C1592.903,625.554 1588.723,647.683 1578,660C1568.534,670.872 1554.957,676.191 1528,676C1510.052,675.873 1491.714,678.124 1475,669C1464.255,663.134 1449.305,647.253 1444,629C1443.908,628.684 1420,629 1420,629C1420,629 1419.491,642.799 1434,663C1446.62,680.571 1456.091,686.104 1464.865,691.098C1481.436,700.53 1509.973,699.782 1529,700C1546.233,700.197 1563.124,700.564 1581.802,690.596C1596.048,682.993 1608.454,669.063 1612,652C1612.044,651.786 1612.087,651.573 1612.132,651.36C1617.636,625.417 1617.402,601.872 1609,588C1603.416,578.781 1599.9,573.075 1591.058,565.489C1580.603,556.518 1564.3,551.788 1564,549.964C1563.497,546.903 1579.377,544.724 1596,525C1615.349,502.042 1616.303,486.651 1616,462C1615.735,440.395 1593.728,415.761 1570,407C1542.224,396.745 1495.139,398.515 1474,406C1450.862,414.193 1443,424.167 1434,435Z" style="fill:rgb(79,63,103);"/>
        </g>
    </g>
</svg>
