<?xml version="1.0" encoding="UTF-8" standalone="no"?>
<!DOCTYPE svg PUBLIC "-//W3C//DTD SVG 1.1//EN" "http://www.w3.org/Graphics/SVG/1.1/DTD/svg11.dtd">
<svg width="100%" height="100%" viewBox="0 0 208 301" version="1.1" xmlns="http://www.w3.org/2000/svg" xmlns:xlink="http://www.w3.org/1999/xlink" xml:space="preserve" xmlns:serif="http://www.serif.com/" style="fill-rule:evenodd;clip-rule:evenodd;stroke-linejoin:round;stroke-miterlimit:2;">
    <g transform="matrix(1,0,0,1,-2012,-393)">
        <g id="_5" serif:id="5" transform="matrix(1,0,0,1,0,-7)">
            <path d="M2012,400L2012,580C2021.269,581.292 2042.535,549.665 2071,537C2090.229,528.445 2115.051,526.386 2141,531C2164.988,535.265 2183.675,554.219 2190,574C2195.07,589.856 2193.898,611.289 2190,630C2186.992,644.438 2181.924,648.656 2173,657C2162.71,666.621 2136.877,676.289 2115,676C2095.921,675.748 2082.873,677.851 2061,663C2049.046,654.884 2036,630 2036,630L2012,630C2012,630 2023.515,666.736 2051,683C2067.997,693.058 2085.437,698.844 2114,700.001C2144.608,701.24 2164.339,694.111 2185,680C2195.739,672.665 2209.045,654.644 2213.857,639C2216.595,630.102 2218.913,609.467 2219,605C2219.324,588.354 2216.923,582.063 2215,573C2211.511,556.556 2197.869,536.955 2187,528C2175.027,518.135 2162.498,512.502 2147,508C2122.66,500.929 2098.103,503.492 2079,508C2061.047,512.237 2036.068,533.826 2036,532C2035.849,527.972 2036,452 2036,452L2219,452L2219,428L2036,428L2036,400L2012,400Z"/>
        </g>
    </g>
</svg>
