<?xml version="1.0" encoding="UTF-8" standalone="no"?>
<!DOCTYPE svg PUBLIC "-//W3C//DTD SVG 1.1//EN" "http://www.w3.org/Graphics/SVG/1.1/DTD/svg11.dtd">
<svg width="100%" height="100%" viewBox="0 0 210 300" version="1.1" xmlns="http://www.w3.org/2000/svg" xmlns:xlink="http://www.w3.org/1999/xlink" xml:space="preserve" xmlns:serif="http://www.serif.com/" style="fill-rule:evenodd;clip-rule:evenodd;stroke-linejoin:round;stroke-miterlimit:2;">
    <g transform="matrix(1,0,0,1,-2303.999765,-393)">
        <g id="_6" serif:id="6" transform="matrix(1,0,0,1,0,-15)">
            <path d="M2397,408L2421,408C2421,408 2400.873,438.055 2387,461C2374.543,481.604 2346.738,533.096 2347,537C2347.155,539.306 2357.045,527.356 2376,522C2388.19,518.556 2417.516,509.578 2456,526C2496.144,543.13 2510.21,574.678 2513,606C2516.077,640.547 2497.969,680.127 2467,695C2446.034,705.069 2421.485,712.036 2377,704C2359.416,700.823 2339.167,689.016 2327,674.516C2314.833,660.016 2303.941,637.749 2304,617C2304.099,581.888 2310.515,560.396 2318.136,538.825C2323.082,524.826 2335.989,500.815 2345,486C2367.578,448.88 2397,408 2397,408ZM2408,540C2392.299,540.494 2374.896,545.92 2359,557.955C2347.572,566.607 2332.729,582.673 2331,598C2328.506,620.105 2328.164,641.451 2348,662C2363.817,678.385 2388.77,683.339 2405,684C2433.819,685.174 2459.682,676.368 2470,665C2483.054,650.618 2490.635,640.083 2491,613C2491.447,579.822 2474.602,563.875 2460,553C2448.704,544.587 2434.5,539.167 2408,540Z"/>
        </g>
    </g>
</svg>
