<?xml version="1.0" encoding="UTF-8" standalone="no"?>
<!DOCTYPE svg PUBLIC "-//W3C//DTD SVG 1.1//EN" "http://www.w3.org/Graphics/SVG/1.1/DTD/svg11.dtd">
<svg width="100%" height="100%" viewBox="0 0 206 301" version="1.1" xmlns="http://www.w3.org/2000/svg" xmlns:xlink="http://www.w3.org/1999/xlink" xml:space="preserve" xmlns:serif="http://www.serif.com/" style="fill-rule:evenodd;clip-rule:evenodd;stroke-linejoin:round;stroke-miterlimit:2;">
    <g transform="matrix(1,0,0,1,-2604,-393)">
        <g id="_7" serif:id="7" transform="matrix(1,0,0,1,0,-15)">
            <path d="M2604,408L2604,432L2774,432C2774,432 2752.584,475.693 2737,513C2728.203,534.061 2712.578,581.623 2707,607.756C2698.641,646.917 2694.451,691.932 2695,708.139L2719,708.065C2718.667,691.232 2720.066,655.981 2729,616C2739.682,568.199 2746.863,549.219 2755,530C2764.069,508.579 2784.422,460 2784.422,460L2810,408L2604,408Z"/>
        </g>
    </g>
</svg>
