<?xml version="1.0" encoding="UTF-8" standalone="no"?>
<!DOCTYPE svg PUBLIC "-//W3C//DTD SVG 1.1//EN" "http://www.w3.org/Graphics/SVG/1.1/DTD/svg11.dtd">
<svg width="100%" height="100%" viewBox="0 0 205 301" version="1.1" xmlns="http://www.w3.org/2000/svg" xmlns:xlink="http://www.w3.org/1999/xlink" xml:space="preserve" xmlns:serif="http://www.serif.com/" style="fill-rule:evenodd;clip-rule:evenodd;stroke-linejoin:round;stroke-miterlimit:2;">
    <g transform="matrix(1,0,0,1,-2901.832328,-392.923298)">
        <g id="_8" serif:id="8" transform="matrix(1,0,0,1,0,-17)">
            <path d="M3011,410C3043.275,408.994 3068.185,417.919 3085,435C3093.375,443.508 3107.266,464.749 3106,485C3104.734,505.251 3102.671,514.646 3091,534C3082.575,547.971 3064,560 3064,560C3064,560 3083.552,568.958 3093,584C3101.824,598.049 3105.418,611.433 3106,629C3106.715,650.563 3094.565,679.341 3078,692C3055.221,709.409 3035.212,709.621 3011,710.065C2989.742,710.455 2951.779,707.695 2934,693C2907.753,671.305 2903.105,654.287 2902,633C2900.815,610.173 2906.065,601.091 2913,588C2919.849,575.072 2939,560 2939,560C2939,560 2922.79,547.108 2916,535C2909.68,523.731 2900.645,507.88 2902,487C2903.518,463.618 2912.593,449.451 2929,434C2953.753,410.689 2979.742,410.975 3011,410ZM3011,434C2995.822,433.356 2967.456,435.017 2952,446C2941.539,453.434 2926.391,467.552 2926,490C2925.664,509.295 2937.868,539.886 2963,546C2980.455,550.246 2986.564,548.181 3011,548C3022.673,547.913 3047.003,549.962 3060,539C3073.764,527.391 3081.366,516.599 3082,489C3082.282,476.705 3080.383,462.148 3065,449C3048.785,435.141 3039.094,435.191 3011,434ZM2947,584C2937.687,592.045 2926.745,602.897 2926,634C2925.7,646.53 2942.029,675.545 2960,679C2971.297,681.172 2988.792,686.515 3011,686C3024.149,685.695 3047.945,684.533 3064,672C3076.585,662.176 3081.363,641.573 3082,629C3082.697,615.258 3082.198,608.282 3071,594C3057.581,576.886 3033.34,572.556 3011,573C2983.618,573.545 2960.261,572.544 2947,584Z"/>
        </g>
    </g>
</svg>
