<?xml version="1.0" encoding="UTF-8" standalone="no"?>
<!DOCTYPE svg PUBLIC "-//W3C//DTD SVG 1.1//EN" "http://www.w3.org/Graphics/SVG/1.1/DTD/svg11.dtd">
<svg width="100%" height="100%" viewBox="0 0 211 300" version="1.1" xmlns="http://www.w3.org/2000/svg" xmlns:xlink="http://www.w3.org/1999/xlink" xml:space="preserve" xmlns:serif="http://www.serif.com/" style="fill-rule:evenodd;clip-rule:evenodd;stroke-linejoin:round;stroke-miterlimit:2;">
    <g transform="matrix(1,0,0,1,-3202.902412,-393.407931)">
        <g id="_9" serif:id="9" transform="matrix(1,0,0,1,0,-20)">
            <path d="M3283,415C3309.252,413.698 3344.006,409.206 3370,425C3405.179,446.375 3414,479 3413,512C3412,545 3319,713.001 3319,713.001L3296,713.139L3360,583C3360,583 3337.602,600.652 3307.935,600C3280.176,599.39 3254.555,595.399 3233,579C3202.604,555.874 3194.523,510.657 3212,472C3231.899,427.988 3275.138,415.39 3283,415ZM3295,437C3277.24,437.587 3261.167,447.5 3249,458C3236.833,468.5 3224.212,493.506 3227,521C3229.332,543.996 3241.318,563.214 3271,573C3288.651,578.819 3319.378,578.051 3346,567C3372.622,555.949 3388.165,540.546 3389,511C3389.602,489.71 3383.221,461.837 3360,448C3337.61,434.658 3315.167,436.333 3295,437Z"/>
        </g>
    </g>
</svg>
