<?xml version="1.0" encoding="UTF-8" standalone="no"?>
<!DOCTYPE svg PUBLIC "-//W3C//DTD SVG 1.1//EN" "http://www.w3.org/Graphics/SVG/1.1/DTD/svg11.dtd">
<svg width="100%" height="100%" viewBox="0 0 1100 1100" version="1.1" xmlns="http://www.w3.org/2000/svg" xmlns:xlink="http://www.w3.org/1999/xlink" xml:space="preserve" xmlns:serif="http://www.serif.com/" style="fill-rule:evenodd;clip-rule:evenodd;stroke-linejoin:round;stroke-miterlimit:2;">
    <g id="レイヤー2" transform="matrix(4.166667,0,0,4.166667,-2085.619394,127.452346)">
        <path d="M575,31C573.834,30.897 568.454,36.551 567,56C565.695,73.461 574.903,90.431 574,91C572.818,91.745 567.748,83.121 562,72C561.035,70.133 559.503,69.608 557.788,65.739C554.905,59.236 550.516,54.157 548,55C542.586,56.815 545.115,64.455 547,70C551.851,84.27 571.667,104 571,106C570.63,107.109 563.81,103.483 556.846,101.499C551.876,100.083 547.414,96.306 545,99C543.11,101.109 550.175,107.857 554,111C559.338,115.386 576.605,125.25 576,127C575.416,128.689 570.333,128.5 570,130C569.667,131.5 575,138 575,138C580.417,137.824 597.651,141.321 605,145C608.389,146.697 614.228,148.825 617.886,152.67C620.635,155.559 628,162 628,162C628,162 627.028,150.699 624,145C624,145 620.894,140.328 617.904,137.687C614.77,134.919 608.261,130.51 605,127C595.795,117.092 592.865,109.811 591,105C588.661,98.969 585.784,88.491 584,77C582.952,70.248 581.77,64.181 580.471,58.274C579.372,53.275 577.733,46.33 577.086,41.588C576.509,37.356 575.924,31.082 575,31Z"/>
        <path d="M620,159C619.993,159 621.001,164.732 622.342,166.809C623.782,169.039 626,173 626,173L626,166C625,162.667 620.167,159 620,159Z"/>
        <path d="M628,146C628,146 630,154 631,156C631,156 633.366,152.992 636,151C639.857,148.083 649.639,144.02 653.851,142.758C661.175,140.564 672.186,138.159 676,137C680.37,135.672 681.244,136.115 682.686,134.486C683.737,133.298 684.319,133.259 684,131C683.7,128.877 680.175,126.957 680,126C679.647,124.067 689.705,120.626 694,118C696.133,116.696 704.745,111.246 709.648,107.73C714.616,104.166 715.975,102.46 715,101C714.301,99.953 708.803,99.893 707,100C704.358,100.157 701.5,101.466 699.266,101.892C697.618,102.206 692.881,104.086 691.211,104.582C688.391,105.419 685,107 685,107C685.789,101.185 695.882,92.516 698,90C699.648,88.043 704.552,83.544 709.051,77.266C713.261,71.391 719.706,61.886 720,59C720.233,56.712 720.552,53.404 717,53C712.462,52.484 710.336,54.886 707,58C705.4,59.493 699.724,64.99 695.968,69.566C691.89,74.532 687,81 687,81C687.505,73.072 690.064,74.075 692,60C692.686,55.008 692.288,46.322 689.564,39.529C687.92,35.428 687.197,32.394 686.112,30.662C685.43,29.574 683,30 683,30C681.704,33.599 681.41,41.342 680,47C678.744,52.043 675.866,64.656 673.492,73.276C670.591,83.809 667.654,89.498 666,93C663.134,99.068 660.394,107.287 655.333,113.978C652.557,117.648 647.457,124.695 644,128C640.37,131.471 637.347,134.749 634.808,137.689C632.003,140.937 629.789,143.773 628,146Z"/>
    </g>
</svg>
