<?xml version="1.0" encoding="UTF-8" standalone="no"?>
<!DOCTYPE svg PUBLIC "-//W3C//DTD SVG 1.1//EN" "http://www.w3.org/Graphics/SVG/1.1/DTD/svg11.dtd">
<svg width="100%" height="100%" viewBox="0 0 1335 198" version="1.1" xmlns="http://www.w3.org/2000/svg" xmlns:xlink="http://www.w3.org/1999/xlink" xml:space="preserve" xmlns:serif="http://www.serif.com/" style="fill-rule:evenodd;clip-rule:evenodd;stroke-linejoin:round;stroke-miterlimit:2;">
    <g transform="matrix(1,0,0,1,-2223.523628,-1800)">
        <g id="category" transform="matrix(1,0,0,1,2769,125)">
            <g id="C" transform="matrix(1,0,0,1,-3207.476372,194.777524)">
                <path d="M2788,1555.222C2788.065,1547.974 2788.169,1535.242 2782.52,1522.222C2778.796,1513.64 2764.309,1499.772 2739,1499.222C2700.845,1498.394 2684.182,1513.946 2681,1539L2681,1615.222C2688.123,1657.467 2717.926,1656.901 2735,1657.222C2766.769,1657.82 2784.598,1651.556 2788,1601.222L2807.414,1601.222C2811.214,1667.684 2771.23,1677.649 2735,1676.971C2675.6,1675.859 2664.969,1637.803 2662,1618.222L2662,1542C2664.778,1515.016 2669.661,1508.218 2676,1502C2688.505,1489.734 2699.415,1485.528 2711,1483C2729.482,1478.967 2747.26,1480.316 2753,1481C2770.798,1483.12 2786.939,1489.534 2798,1505.222C2803.413,1512.9 2808.995,1528.51 2807,1555L2788,1555.222Z"/>
            </g>
            <g id="A" transform="matrix(1,0,0,1,-2818.082558,194.5)">
                <path d="M2439,1677.5L2532.5,1481.5L2626,1677.5L2607,1678.249L2565,1589.5L2500,1589.5L2458,1677.5L2439,1677.5ZM2532.5,1521.5L2509,1570.5L2556,1570.5L2532.5,1521.5Z"/>
            </g>
            <g id="T" transform="matrix(1,0,0,1,-1281.082558,214.000752)">
                <path d="M1070,1462L1070,1481L1129,1481L1129,1658L1148,1658L1148,1481L1207,1481L1207,1462L1070,1462Z"/>
            </g>
            <g id="E" transform="matrix(1,0,0,1,-716,213.999344)">
                <path d="M682,1462L682,1658L818,1658L818,1639L703,1639L703,1570L793,1570L793,1551L703,1551L703,1481L818,1481L818,1462L682,1462Z"/>
            </g>
            <g id="G" transform="matrix(1,0,0,1,-2525.476372,195.777524)">
                <path d="M2788,1555.222C2788.065,1547.974 2788.169,1535.242 2782.52,1522.222C2778.796,1513.64 2764.309,1499.772 2739,1499.222C2700.845,1498.394 2684.182,1513.946 2681,1539L2681,1615.222C2688.123,1657.467 2717.926,1656.901 2735,1657.222C2764.247,1657.773 2784.68,1646.507 2787.917,1602.393L2749,1602.222L2748.094,1584.461L2807.414,1584.222C2807.648,1588.323 2807.376,1598.54 2807.414,1602.222C2808.058,1664.843 2769.028,1677.423 2735,1676.971C2675.594,1676.182 2664.969,1637.803 2662,1618.222L2662,1542C2664.778,1515.016 2669.661,1508.218 2676,1502C2688.505,1489.734 2699.415,1485.528 2711,1483C2729.482,1478.967 2747.26,1480.316 2753,1481C2770.798,1483.12 2786.939,1489.534 2798,1505.222C2803.413,1512.9 2808.995,1528.51 2807,1555L2788,1555.222Z"/>
            </g>
            <g id="O" transform="matrix(1,0,0,1,-360,-500)">
                <path d="M682,2228C682.062,2220.686 685.98,2201.359 703.168,2189C716.799,2179.198 733.406,2176.057 750,2176C773.594,2175.918 788.917,2183.453 797.005,2190C809.451,2200.076 818.086,2216.217 818,2228L818,2320C817.5,2335.19 808.231,2350.318 798.005,2358C787.225,2366.098 770.974,2371.924 750,2372C729.073,2372.076 711.983,2366.338 702.168,2358C690.705,2348.262 683.472,2338.72 682,2320L682,2228ZM785,2204C778.768,2199.245 771.368,2195.107 750.7,2195C734.033,2194.914 724.861,2195.689 714,2204C702.907,2212.489 701.443,2219.858 701,2227L701,2320C703.384,2335.125 706.541,2337.666 714,2344C722.589,2351.293 732.732,2352.697 749,2353C764.206,2353.283 777.846,2350.029 786,2344C794.922,2337.403 798.182,2327.107 799,2320L799,2228C798.673,2216.796 792.133,2209.443 785,2204Z"/>
            </g>
            <g id="R" transform="matrix(1,0,0,1,-2519.085941,-517.999248)">
                <path d="M3017,2194.001L3101,2194.001C3142.881,2195.897 3152.812,2225.988 3153.002,2244.999C3153.342,2278.944 3135.663,2301.787 3109,2301.999C3103.852,2302.04 3086.546,2302.043 3086.546,2302.043L3152.717,2390.036L3134.525,2390.029L3067.319,2302.02L3037.001,2301.999L3037.001,2390.002L3017,2390L3017,2194.001ZM3037.001,2212.999L3037.001,2282.999L3107,2282.999C3130.715,2282.868 3134.724,2259.595 3134.001,2244.999C3133.476,2234.404 3128.682,2214.573 3105,2212.999L3037.001,2212.999Z"/>
            </g>
            <g id="Y" transform="matrix(1,0,0,1,-963,1)">
                <path d="M1615,1675L1675,1768L1675,1871L1695,1871L1695,1768L1752,1675L1732,1675L1685,1750L1634,1675L1615,1675Z"/>
            </g>
        </g>
    </g>
</svg>
